<?xml version="1.0" encoding="UTF-8"?>
<svg width="500px" height="400px" viewBox="0 0 500 400" version="1.1" xmlns="http://www.w3.org/2000/svg" xmlns:xlink="http://www.w3.org/1999/xlink">
    <!-- Generator: Sketch 41.2 (35397) - http://www.bohemiancoding.com/sketch -->
    <title>Artboard</title>
    <desc>Created with Sketch.</desc>
    <defs>
        <linearGradient x1="58.9993773%" y1="83.9041699%" x2="19.0877751%" y2="12.1652053%" id="linearGradient-1">
            <stop stop-color="#FF4500" offset="0%"></stop>
            <stop stop-color="#FF7AC4" offset="100%"></stop>
        </linearGradient>
        <linearGradient x1="50%" y1="0%" x2="50%" y2="97.6320608%" id="linearGradient-2">
            <stop stop-color="#E7543B" offset="0%"></stop>
            <stop stop-color="#FFD6A5" offset="49.6771365%"></stop>
            <stop stop-color="#FFE4AE" stop-opacity="0" offset="100%"></stop>
        </linearGradient>
        <linearGradient x1="50%" y1="0%" x2="95.6494367%" y2="100%" id="linearGradient-3">
            <stop stop-color="#FFF8F1" offset="0%"></stop>
            <stop stop-color="#FFCACE" offset="100%"></stop>
        </linearGradient>
        <radialGradient cx="50%" cy="134.408572%" fx="50%" fy="134.408572%" r="120.257643%" id="radialGradient-4">
            <stop stop-color="#FFE500" offset="0%"></stop>
            <stop stop-color="#7B6AC7" stop-opacity="0" offset="100%"></stop>
        </radialGradient>
        <linearGradient x1="0%" y1="50%" x2="100%" y2="50%" id="linearGradient-5">
            <stop stop-color="#FFD0B8" offset="0%"></stop>
            <stop stop-color="#E7AFBF" offset="100%"></stop>
        </linearGradient>
        <rect id="path-6" x="106.905526" y="261.873948" width="286.188947" height="66.2102398" rx="33.1051199"></rect>
        <filter x="-50%" y="-50%" width="200%" height="200%" filterUnits="objectBoundingBox" id="filter-7">
            <feOffset dx="0" dy="14" in="SourceAlpha" result="shadowOffsetOuter1"></feOffset>
            <feGaussianBlur stdDeviation="8.5" in="shadowOffsetOuter1" result="shadowBlurOuter1"></feGaussianBlur>
            <feComposite in="shadowBlurOuter1" in2="SourceAlpha" operator="out" result="shadowBlurOuter1"></feComposite>
            <feColorMatrix values="0 0 0 0 1   0 0 0 0 0.766178471   0 0 0 0 0.635396938  0 0 0 0.214136096 0" type="matrix" in="shadowBlurOuter1"></feColorMatrix>
        </filter>
        <mask id="mask-8" maskContentUnits="userSpaceOnUse" maskUnits="objectBoundingBox" x="0" y="0" width="286.188947" height="66.2102398" fill="white">
            <use xlink:href="#path-6"></use>
        </mask>
        <linearGradient x1="5.20765055%" y1="37.3696922%" x2="78.0166903%" y2="99.1212098%" id="linearGradient-9">
            <stop stop-color="#FFF3B8" offset="0%"></stop>
            <stop stop-color="#FF9A7A" offset="100%"></stop>
        </linearGradient>
        <linearGradient x1="22.2845073%" y1="8.3593942%" x2="83.0503547%" y2="100%" id="linearGradient-10">
            <stop stop-color="#FFD08B" offset="0%"></stop>
            <stop stop-color="#FF025D" offset="100%"></stop>
        </linearGradient>
        <linearGradient x1="38.4133806%" y1="-9.99069606%" x2="86.0316872%" y2="100%" id="linearGradient-11">
            <stop stop-color="#FF8744" offset="0%"></stop>
            <stop stop-color="#FC2A68" offset="100%"></stop>
        </linearGradient>
    </defs>
    <g id="Page-1" stroke="none" stroke-width="1" fill="none" fill-rule="evenodd">
        <g id="Artboard">
            <g id="RML" transform="translate(0.000000, 28.000000)">
                <circle id="Oval-1" stroke="url(#linearGradient-1)" stroke-width="8" stroke-linecap="round" stroke-dasharray="100,25,1,15" cx="250" cy="175.094474" r="143.094474"></circle>
                <rect id="Rectangle-2" fill="url(#linearGradient-2)" x="207.5" y="194.873948" width="85" height="66.2102398"></rect>
                <g id="Rectangle-1">
                    <use fill="black" fill-opacity="1" filter="url(#filter-7)" xlink:href="#path-6"></use>
                    <use fill="url(#linearGradient-3)" fill-rule="evenodd" xlink:href="#path-6"></use>
                    <use fill="url(#radialGradient-4)" fill-rule="evenodd" style="mix-blend-mode: screen;" xlink:href="#path-6"></use>
                    <use stroke="url(#linearGradient-5)" mask="url(#mask-8)" stroke-width="4" xlink:href="#path-6"></use>
                </g>
                <path d="M250.000032,203.871025 L213.522446,223.048427 C208.636634,225.61705 205.432708,223.28681 206.365441,217.848559 L213.33204,177.23017 L183.821053,148.464067 C179.868349,144.611132 181.094471,140.843933 186.554786,140.050503 L227.337967,134.12436 L245.57676,97.1685284 C248.019666,92.2186608 251.981378,92.2206444 254.423304,97.1685284 L272.662098,134.12436 L313.445279,140.050503 C318.907782,140.844251 320.130132,144.612676 316.179012,148.464067 L286.668024,177.23017 L293.634623,217.848559 C294.56773,223.28899 291.361472,225.616021 286.477619,223.048427 L250.000032,203.871025 Z" id="Star-1" stroke="url(#linearGradient-10)" stroke-width="5" fill="url(#linearGradient-9)"></path>
                <path d="M42.1834229,131.82703 L32.1658398,137.093585 C28.2578687,139.148127 25.6962248,137.278122 26.4412294,132.934412 L28.3544176,121.77967 L20.2500225,113.879837 C17.0884075,110.798024 18.0752964,107.783893 22.4366291,107.150154 L33.6366276,105.522699 L38.6454192,95.3737786 C40.5994047,91.4145715 43.7709794,91.4217407 45.7214267,95.3737786 L50.7302183,105.522699 L61.9302167,107.150154 C66.2994612,107.785042 67.2727133,110.803604 64.1168233,113.879837 L56.0124283,121.77967 L57.9256164,132.934412 C58.6719725,137.286002 56.1019007,139.144407 52.2010061,137.093585 L42.1834229,131.82703 Z" id="Star-1" fill="#DFE9EE"></path>
                <path d="M439.24743,67.5908622 C437.782702,66.8208091 435.415021,66.8170699 433.943181,67.5908622 L431.901292,68.6643469 C430.436564,69.4344 429.474581,68.7443855 429.755678,67.1054672 L430.652155,61.8786058 L426.854618,58.176922 C425.669628,57.0218424 426.028602,55.8937165 427.674169,55.6546016 L432.922236,54.8920128 L435.269243,50.1364572 C436.001607,48.6525256 437.185448,48.64532 437.921368,50.1364572 L440.268375,54.8920128 L445.516442,55.6546016 C447.154058,55.8925611 447.526738,57.0162336 446.335994,58.176922 L442.538457,61.8786058 L443.434934,67.1054672 C443.714672,68.7364658 442.76116,69.4381392 441.28932,68.6643469 L439.24743,67.5908622 Z" id="Star-1" fill="#DFE9EE"></path>
                <path d="M488.008602,140.503673 C486.540468,139.731829 484.160788,139.731495 482.692018,140.503673 L479.188468,142.345598 C477.720334,143.117442 476.757355,142.418592 477.037865,140.783093 L478.214672,133.921781 L473.229637,129.062573 C472.041891,127.904807 472.40896,126.773003 474.051094,126.534387 L480.940243,125.533335 L484.021164,119.290707 C484.755231,117.803325 485.945071,117.802681 486.679456,119.290707 L489.760377,125.533335 L496.649526,126.534387 C498.29095,126.7729 498.659243,127.904306 497.470984,129.062573 L492.485949,133.921781 L493.662756,140.783093 C493.943144,142.417885 492.980922,143.117776 491.512152,142.345598 L488.008602,140.503673 Z" id="Star-1" fill="#DFE9EE"></path>
                <path d="M380.693695,23.5856969 L374.182439,27.0088671 C372.224197,28.0383757 370.94107,27.0985063 371.313899,24.9247508 L372.557438,17.67436 L367.289721,12.5396047 C365.70547,10.9953417 366.202831,9.48458037 368.385406,9.16743372 L375.665212,8.10961595 L378.92084,1.51299243 C379.899961,-0.470923163 381.490473,-0.464755626 382.46655,1.51299243 L385.722179,8.10961595 L393.001985,9.16743372 C395.191366,9.48556938 395.676996,11.0001425 394.09767,12.5396047 L388.829953,17.67436 L390.073492,24.9247508 C390.447483,27.1052851 389.157106,28.0351752 387.204952,27.0088671 L380.693695,23.5856969 Z" id="Star-1" fill="#DFE9EE"></path>
                <path d="M15.3047071,209.81245 L8.79345038,213.235621 C6.83520862,214.265129 5.5520822,213.32526 5.92491044,211.151504 L7.16844981,203.901114 L1.90073251,198.766358 C0.316481651,197.222095 0.813842708,195.711334 2.99641727,195.394187 L10.2762235,194.33637 L13.5318519,187.739746 C14.5109728,185.75583 16.1014852,185.761998 17.0775622,187.739746 L20.3331906,194.33637 L27.6129968,195.394187 C29.8023777,195.712323 30.2880074,197.226896 28.7086816,198.766358 L23.4409643,203.901114 L24.6845037,211.151504 C25.0584946,213.332039 23.7681178,214.261929 21.8159637,213.235621 L15.3047071,209.81245 Z" id="Star-1" fill="#DFE9EE"></path>
                <path d="M154.555,306.838947 C154.555,307.278947 154.675,307.613947 154.915,307.843947 C155.155,308.073947 155.495,308.188947 155.935,308.188947 L156.595,308.188947 C157.035,308.188947 157.37,308.073947 157.6,307.843947 C157.83,307.613947 157.945,307.278947 157.945,306.838947 L157.945,300.418947 L162.445,300.418947 L166.465,306.838947 C166.785,307.298947 167.07,307.638947 167.32,307.858947 C167.57,308.078947 167.915,308.188947 168.355,308.188947 L169.165,308.188947 C169.605,308.188947 169.945,308.033947 170.185,307.723947 C170.425,307.413947 170.355,306.958947 169.975,306.358947 L165.895,299.998947 C167.335,299.558947 168.43,298.793947 169.18,297.703947 C169.93,296.613947 170.305,295.318947 170.305,293.818947 C170.305,291.858947 169.67,290.323947 168.4,289.213947 C167.13,288.103947 165.295,287.548947 162.895,287.548947 L155.935,287.548947 C155.495,287.548947 155.155,287.663947 154.915,287.893947 C154.675,288.123947 154.555,288.458947 154.555,288.898947 L154.555,306.838947 Z M157.945,297.628947 L157.945,290.368947 L162.865,290.368947 C164.145,290.368947 165.135,290.683947 165.835,291.313947 C166.535,291.943947 166.885,292.788947 166.885,293.848947 C166.885,294.908947 166.545,295.803947 165.865,296.533947 C165.185,297.263947 164.185,297.628947 162.865,297.628947 L157.945,297.628947 Z M172.885,306.658947 C172.685,307.178947 172.685,307.563947 172.885,307.813947 C173.085,308.063947 173.425,308.188947 173.905,308.188947 L174.625,308.188947 C175.065,308.188947 175.395,308.083947 175.615,307.873947 C175.835,307.663947 176.025,307.338947 176.185,306.898947 L177.535,303.088947 L186.295,303.088947 L187.645,306.898947 C187.805,307.338947 187.995,307.663947 188.215,307.873947 C188.435,308.083947 188.765,308.188947 189.205,308.188947 L190.105,308.188947 C190.585,308.188947 190.92,308.063947 191.11,307.813947 C191.3,307.563947 191.305,307.178947 191.125,306.658947 L184.555,288.898947 C184.395,288.458947 184.165,288.123947 183.865,287.893947 C183.565,287.663947 183.165,287.548947 182.665,287.548947 L181.315,287.548947 C180.815,287.548947 180.43,287.663947 180.16,287.893947 C179.89,288.123947 179.675,288.458947 179.515,288.898947 L172.885,306.658947 Z M178.525,300.268947 L181.885,290.908947 L182.005,290.908947 L185.305,300.268947 L178.525,300.268947 Z M198.985,306.838947 C198.985,307.278947 199.105,307.613947 199.345,307.843947 C199.585,308.073947 199.925,308.188947 200.365,308.188947 L201.025,308.188947 C201.465,308.188947 201.8,308.073947 202.03,307.843947 C202.26,307.613947 202.375,307.278947 202.375,306.838947 L202.375,290.398947 L208.285,290.398947 C208.685,290.398947 208.985,290.298947 209.185,290.098947 C209.385,289.898947 209.485,289.608947 209.485,289.228947 L209.485,288.718947 C209.485,288.338947 209.385,288.048947 209.185,287.848947 C208.985,287.648947 208.685,287.548947 208.285,287.548947 L193.075,287.548947 C192.695,287.548947 192.405,287.648947 192.205,287.848947 C192.005,288.048947 191.905,288.338947 191.905,288.718947 L191.905,289.228947 C191.905,289.608947 192.005,289.898947 192.205,290.098947 C192.405,290.298947 192.695,290.398947 193.075,290.398947 L198.985,290.398947 L198.985,306.838947 Z M212.245,306.838947 C212.245,307.278947 212.365,307.613947 212.605,307.843947 C212.845,308.073947 213.185,308.188947 213.625,308.188947 L225.775,308.188947 C226.155,308.188947 226.45,308.088947 226.66,307.888947 C226.87,307.688947 226.975,307.398947 226.975,307.018947 L226.975,306.508947 C226.975,306.128947 226.87,305.833947 226.66,305.623947 C226.45,305.413947 226.155,305.308947 225.775,305.308947 L215.635,305.308947 L215.635,299.068947 L223.345,299.068947 C223.725,299.068947 224.015,298.973947 224.215,298.783947 C224.415,298.593947 224.515,298.308947 224.515,297.928947 L224.515,297.418947 C224.515,297.038947 224.415,296.753947 224.215,296.563947 C224.015,296.373947 223.725,296.278947 223.345,296.278947 L215.635,296.278947 L215.635,290.428947 L225.505,290.428947 C225.905,290.428947 226.205,290.323947 226.405,290.113947 C226.605,289.903947 226.705,289.608947 226.705,289.228947 L226.705,288.718947 C226.705,288.338947 226.605,288.048947 226.405,287.848947 C226.205,287.648947 225.905,287.548947 225.505,287.548947 L213.625,287.548947 C213.185,287.548947 212.845,287.663947 212.605,287.893947 C212.365,288.123947 212.245,288.458947 212.245,288.898947 L212.245,306.838947 Z M237.265,306.838947 C237.265,307.278947 237.385,307.613947 237.625,307.843947 C237.865,308.073947 238.205,308.188947 238.645,308.188947 L239.305,308.188947 C239.745,308.188947 240.085,308.073947 240.325,307.843947 C240.565,307.613947 240.675,307.278947 240.655,306.838947 L240.415,292.738947 L240.535,292.738947 L246.685,306.838947 C246.885,307.318947 247.11,307.663947 247.36,307.873947 C247.61,308.083947 247.945,308.188947 248.365,308.188947 L248.725,308.188947 C249.145,308.188947 249.485,308.083947 249.745,307.873947 C250.005,307.663947 250.225,307.318947 250.405,306.838947 L256.585,292.468947 L256.705,292.468947 L256.435,306.838947 C256.435,307.278947 256.55,307.613947 256.78,307.843947 C257.01,308.073947 257.345,308.188947 257.785,308.188947 L258.475,308.188947 C258.915,308.188947 259.25,308.073947 259.48,307.843947 C259.71,307.613947 259.825,307.278947 259.825,306.838947 L259.825,288.898947 C259.825,288.458947 259.71,288.123947 259.48,287.893947 C259.25,287.663947 258.915,287.548947 258.475,287.548947 L256.825,287.548947 C256.385,287.548947 256.005,287.663947 255.685,287.893947 C255.365,288.123947 255.125,288.458947 254.965,288.898947 L248.665,303.598947 L248.575,303.598947 L242.215,288.898947 C242.015,288.458947 241.78,288.123947 241.51,287.893947 C241.24,287.663947 240.885,287.548947 240.445,287.548947 L238.645,287.548947 C238.205,287.548947 237.865,287.663947 237.625,287.893947 C237.385,288.123947 237.265,288.458947 237.265,288.898947 L237.265,306.838947 Z M269.725,306.838947 C269.725,307.278947 269.84,307.613947 270.07,307.843947 C270.3,308.073947 270.635,308.188947 271.075,308.188947 L271.765,308.188947 C272.205,308.188947 272.54,308.073947 272.77,307.843947 C273,307.613947 273.115,307.278947 273.115,306.838947 L273.115,300.118947 L279.685,289.198947 C279.985,288.698947 280.045,288.298947 279.865,287.998947 C279.685,287.698947 279.375,287.548947 278.935,287.548947 L278.155,287.548947 C277.675,287.548947 277.315,287.648947 277.075,287.848947 C276.835,288.048947 276.595,288.348947 276.355,288.748947 L271.555,296.818947 L271.435,296.818947 L266.815,288.748947 C266.575,288.348947 266.345,288.048947 266.125,287.848947 C265.905,287.648947 265.545,287.548947 265.045,287.548947 L263.995,287.548947 C263.555,287.548947 263.245,287.698947 263.065,287.998947 C262.885,288.298947 262.945,288.698947 263.245,289.198947 L269.725,300.238947 L269.725,306.838947 Z M289.315,306.838947 C289.315,307.278947 289.435,307.613947 289.675,307.843947 C289.915,308.073947 290.255,308.188947 290.695,308.188947 L301.495,308.188947 C301.895,308.188947 302.195,308.088947 302.395,307.888947 C302.595,307.688947 302.695,307.398947 302.695,307.018947 L302.695,306.478947 C302.695,306.098947 302.595,305.803947 302.395,305.593947 C302.195,305.383947 301.895,305.278947 301.495,305.278947 L292.705,305.278947 L292.705,288.898947 C292.705,288.458947 292.59,288.123947 292.36,287.893947 C292.13,287.663947 291.795,287.548947 291.355,287.548947 L290.695,287.548947 C290.255,287.548947 289.915,287.663947 289.675,287.893947 C289.435,288.123947 289.315,288.458947 289.315,288.898947 L289.315,306.838947 Z M306.025,306.838947 C306.025,307.278947 306.145,307.613947 306.385,307.843947 C306.625,308.073947 306.965,308.188947 307.405,308.188947 L308.065,308.188947 C308.505,308.188947 308.84,308.073947 309.07,307.843947 C309.3,307.613947 309.415,307.278947 309.415,306.838947 L309.415,288.898947 C309.415,288.458947 309.3,288.123947 309.07,287.893947 C308.84,287.663947 308.505,287.548947 308.065,287.548947 L307.405,287.548947 C306.965,287.548947 306.625,287.663947 306.385,287.893947 C306.145,288.123947 306.025,288.458947 306.025,288.898947 L306.025,306.838947 Z M314.485,306.838947 C314.485,307.278947 314.605,307.613947 314.845,307.843947 C315.085,308.073947 315.425,308.188947 315.865,308.188947 L316.525,308.188947 C316.965,308.188947 317.3,308.073947 317.53,307.843947 C317.76,307.613947 317.875,307.278947 317.875,306.838947 L317.875,299.578947 L325.285,299.578947 C325.665,299.578947 325.955,299.478947 326.155,299.278947 C326.355,299.078947 326.455,298.788947 326.455,298.408947 L326.455,297.898947 C326.455,297.518947 326.355,297.233947 326.155,297.043947 C325.955,296.853947 325.665,296.758947 325.285,296.758947 L317.875,296.758947 L317.875,290.428947 L327.475,290.428947 C327.855,290.428947 328.145,290.323947 328.345,290.113947 C328.545,289.903947 328.645,289.608947 328.645,289.228947 L328.645,288.718947 C328.645,288.338947 328.545,288.048947 328.345,287.848947 C328.145,287.648947 327.855,287.548947 327.475,287.548947 L315.865,287.548947 C315.425,287.548947 315.085,287.663947 314.845,287.893947 C314.605,288.123947 314.485,288.458947 314.485,288.898947 L314.485,306.838947 Z M332.065,306.838947 C332.065,307.278947 332.185,307.613947 332.425,307.843947 C332.665,308.073947 333.005,308.188947 333.445,308.188947 L345.595,308.188947 C345.975,308.188947 346.27,308.088947 346.48,307.888947 C346.69,307.688947 346.795,307.398947 346.795,307.018947 L346.795,306.508947 C346.795,306.128947 346.69,305.833947 346.48,305.623947 C346.27,305.413947 345.975,305.308947 345.595,305.308947 L335.455,305.308947 L335.455,299.068947 L343.165,299.068947 C343.545,299.068947 343.835,298.973947 344.035,298.783947 C344.235,298.593947 344.335,298.308947 344.335,297.928947 L344.335,297.418947 C344.335,297.038947 344.235,296.753947 344.035,296.563947 C343.835,296.373947 343.545,296.278947 343.165,296.278947 L335.455,296.278947 L335.455,290.428947 L345.325,290.428947 C345.725,290.428947 346.025,290.323947 346.225,290.113947 C346.425,289.903947 346.525,289.608947 346.525,289.228947 L346.525,288.718947 C346.525,288.338947 346.425,288.048947 346.225,287.848947 C346.025,287.648947 345.725,287.548947 345.325,287.548947 L333.445,287.548947 C333.005,287.548947 332.665,287.663947 332.425,287.893947 C332.185,288.123947 332.065,288.458947 332.065,288.898947 L332.065,306.838947 Z" id="RATE-MY-LIFE" fill="url(#linearGradient-11)"></path>
                <path d="M76.4211845,8.72631302 C78.2448855,8.72631302 79.7232873,7.24791124 79.7232873,5.42421023 C79.7232873,3.60050922 78.2448855,2.12210744 76.4211845,2.12210744 C74.5974835,2.12210744 73.1190817,3.60050922 73.1190817,5.42421023 C73.1190817,7.24791124 74.5974835,8.72631302 76.4211845,8.72631302 Z M90.8143767,23.1195052 C92.6380777,23.1195052 94.1164795,21.6411035 94.1164795,19.8174025 C94.1164795,17.9937014 92.6380777,16.5152997 90.8143767,16.5152997 C88.9906757,16.5152997 87.5122739,17.9937014 87.5122739,19.8174025 C87.5122739,21.6411035 88.9906757,23.1195052 90.8143767,23.1195052 Z M76.4211845,37.5126975 C78.2448855,37.5126975 79.7232873,36.0342957 79.7232873,34.2105947 C79.7232873,32.3868937 78.2448855,30.9084919 76.4211845,30.9084919 C74.5974835,30.9084919 73.1190817,32.3868937 73.1190817,34.2105947 C73.1190817,36.0342957 74.5974835,37.5126975 76.4211845,37.5126975 Z M62.0279923,23.1195052 C63.8516933,23.1195052 65.330095,21.6411035 65.330095,19.8174025 C65.330095,17.9937014 63.8516933,16.5152997 62.0279923,16.5152997 C60.2042912,16.5152997 58.7258895,17.9937014 58.7258895,19.8174025 C58.7258895,21.6411035 60.2042912,23.1195052 62.0279923,23.1195052 Z M84.263769,11.9748179 C85.5533204,13.2643693 87.6440962,13.2643693 88.9336476,11.9748179 C90.2231989,10.6852665 90.2231989,8.59449071 88.9336476,7.30493935 C87.6440962,6.015388 85.5533204,6.015388 84.263769,7.30493935 C82.9742177,8.59449071 82.9742177,10.6852665 84.263769,11.9748179 Z M84.263769,32.3298656 C85.5533204,33.6194169 87.6440962,33.6194169 88.9336476,32.3298656 C90.2231989,31.0403142 90.2231989,28.9495384 88.9336476,27.659987 C87.6440962,26.3704357 85.5533204,26.3704357 84.263769,27.659987 C82.9742177,28.9495384 82.9742177,31.0403142 84.263769,32.3298656 Z M63.9087214,32.3298656 C65.1982727,33.6194169 67.2890486,33.6194169 68.5785999,32.3298656 C69.8681513,31.0403142 69.8681513,28.9495384 68.5785999,27.659987 C67.2890486,26.3704357 65.1982727,26.3704357 63.9087214,27.659987 C62.61917,28.9495384 62.61917,31.0403142 63.9087214,32.3298656 Z M63.9087214,11.9748179 C65.1982727,13.2643693 67.2890486,13.2643693 68.5785999,11.9748179 C69.8681513,10.6852665 69.8681513,8.59449071 68.5785999,7.30493935 C67.2890486,6.015388 65.1982727,6.015388 63.9087214,7.30493935 C62.61917,8.59449071 62.61917,10.6852665 63.9087214,11.9748179 Z" id="Combined-Shape" fill="#DFE8EE"></path>
                <circle id="Oval-10" fill="#DFE8EE" cx="31.8015774" cy="55.3023536" r="4.0960921"></circle>
                <circle id="Oval-10" fill="#DFE8EE" cx="448.786812" cy="179.190566" r="4.0960921"></circle>
                <circle id="Oval-10" fill="#DFE8EE" cx="475.338698" cy="88.070703" r="2.80601563"></circle>
            </g>
        </g>
    </g>
</svg>