<?xml version="1.0" encoding="UTF-8"?>
<svg width="515px" height="390px" viewBox="0 0 515 390" version="1.1" xmlns="http://www.w3.org/2000/svg" xmlns:xlink="http://www.w3.org/1999/xlink">
    <!-- Generator: Sketch 3.8.1 (29687) - http://www.bohemiancoding.com/sketch -->
    <title>Artboard 2</title>
    <desc>Created with Sketch.</desc>
    <defs>
        <linearGradient x1="58.9993773%" y1="83.9041699%" x2="19.0877751%" y2="12.1652053%" id="linearGradient-1">
            <stop stop-color="#FF4500" offset="0%"></stop>
            <stop stop-color="#FF7AC4" offset="100%"></stop>
        </linearGradient>
        <linearGradient x1="50%" y1="0%" x2="50%" y2="97.6320608%" id="linearGradient-2">
            <stop stop-color="#E7543B" offset="0%"></stop>
            <stop stop-color="#FFD6A5" offset="49.6771365%"></stop>
            <stop stop-color="#FFE4AE" stop-opacity="0" offset="100%"></stop>
        </linearGradient>
        <linearGradient x1="50%" y1="0%" x2="95.6494367%" y2="100%" id="linearGradient-3">
            <stop stop-color="#FFF8F1" offset="0%"></stop>
            <stop stop-color="#FFCACE" offset="100%"></stop>
        </linearGradient>
        <radialGradient cx="50%" cy="134.408572%" fx="50%" fy="134.408572%" r="120.257643%" id="radialGradient-4">
            <stop stop-color="#FFE500" offset="0%"></stop>
            <stop stop-color="#7B6AC7" stop-opacity="0" offset="100%"></stop>
        </radialGradient>
        <linearGradient x1="0%" y1="50%" x2="100%" y2="50%" id="linearGradient-5">
            <stop stop-color="#FFD0B8" offset="0%"></stop>
            <stop stop-color="#E7AFBF" offset="100%"></stop>
        </linearGradient>
        <rect id="path-6" x="456.369554" y="596.7708" width="286.188947" height="66.2102398" rx="33.1051199"></rect>
        <filter x="-50%" y="-50%" width="200%" height="200%" filterUnits="objectBoundingBox" id="filter-7">
            <feOffset dx="0" dy="14" in="SourceAlpha" result="shadowOffsetOuter1"></feOffset>
            <feGaussianBlur stdDeviation="8.5" in="shadowOffsetOuter1" result="shadowBlurOuter1"></feGaussianBlur>
            <feComposite in="shadowBlurOuter1" in2="SourceAlpha" operator="out" result="shadowBlurOuter1"></feComposite>
            <feColorMatrix values="0 0 0 0 1   0 0 0 0 0.766178471   0 0 0 0 0.635396938  0 0 0 0.214136096 0" type="matrix" in="shadowBlurOuter1"></feColorMatrix>
        </filter>
        <mask id="mask-8" maskContentUnits="userSpaceOnUse" maskUnits="objectBoundingBox" x="0" y="0" width="286.188947" height="66.2102398" fill="white">
            <use xlink:href="#path-6"></use>
        </mask>
        <linearGradient x1="5.20765055%" y1="37.3696922%" x2="78.0166903%" y2="99.1212098%" id="linearGradient-9">
            <stop stop-color="#FFF3B8" offset="0%"></stop>
            <stop stop-color="#FF9A7A" offset="100%"></stop>
        </linearGradient>
        <linearGradient x1="22.2845073%" y1="8.3593942%" x2="83.0503547%" y2="100%" id="linearGradient-10">
            <stop stop-color="#FFD08B" offset="0%"></stop>
            <stop stop-color="#FF025D" offset="100%"></stop>
        </linearGradient>
        <linearGradient x1="38.4133806%" y1="-9.99069606%" x2="86.0316872%" y2="100%" id="linearGradient-11">
            <stop stop-color="#FF8744" offset="0%"></stop>
            <stop stop-color="#FC2A68" offset="100%"></stop>
        </linearGradient>
    </defs>
    <g id="Page-1" stroke="none" stroke-width="1" fill="none" fill-rule="evenodd">
        <g id="Artboard-1" transform="translate(-342.000000, -319.000000)">
            <circle id="Oval-1" stroke="url(#linearGradient-1)" stroke-width="8" stroke-linecap="round" stroke-dasharray="100,25,1,15" cx="599.464028" cy="509.991326" r="143.094474"></circle>
            <rect id="Rectangle-2" fill="url(#linearGradient-2)" x="556.964028" y="529.7708" width="85" height="66.2102398"></rect>
            <g id="Rectangle-1">
                <use fill="black" fill-opacity="1" filter="url(#filter-7)" xlink:href="#path-6"></use>
                <use fill="url(#linearGradient-3)" fill-rule="evenodd" xlink:href="#path-6"></use>
                <use fill="url(#radialGradient-4)" fill-rule="evenodd" style="mix-blend-mode: screen;" xlink:href="#path-6"></use>
                <use stroke="url(#linearGradient-5)" mask="url(#mask-8)" stroke-width="4" xlink:href="#path-6"></use>
            </g>
            <path d="M599.46406,538.767878 L562.986474,557.94528 C558.100662,560.513903 554.896736,558.183662 555.829469,552.745412 L562.796068,512.127022 L533.285081,483.360919 C529.332377,479.507984 530.558499,475.740786 536.018814,474.947356 L576.801995,469.021212 L595.040788,432.065381 C597.483694,427.115513 601.445406,427.117497 603.887332,432.065381 L622.126126,469.021212 L662.909307,474.947356 C668.37181,475.741104 669.59416,479.509528 665.64304,483.360919 L636.132052,512.127022 L643.098651,552.745412 C644.031758,558.185843 640.8255,560.512873 635.941647,557.94528 L599.46406,538.767878 Z" id="Star-1" stroke="url(#linearGradient-10)" stroke-width="5" fill="url(#linearGradient-9)"></path>
            <path d="M391.647451,466.723883 L381.629868,471.990438 C377.721897,474.04498 375.160253,472.174975 375.905257,467.831265 L377.818446,456.676522 L369.714051,448.776689 C366.552436,445.694876 367.539324,442.680745 371.900657,442.047006 L383.100656,440.419551 L388.109447,430.270631 C390.063433,426.311424 393.235007,426.318593 395.185455,430.270631 L400.194246,440.419551 L411.394245,442.047006 C415.763489,442.681895 416.736741,445.700457 413.580851,448.776689 L405.476456,456.676522 L407.389644,467.831265 C408.136001,472.182855 405.565929,474.041259 401.665034,471.990438 L391.647451,466.723883 Z" id="Star-1" fill="#DFE9EE"></path>
            <path d="M788.711458,402.487715 C787.24673,401.717662 784.879049,401.713922 783.407209,402.487715 L781.36532,403.561199 C779.900592,404.331252 778.938609,403.641238 779.219706,402.00232 L780.116183,396.775458 L776.318646,393.073774 C775.133656,391.918695 775.49263,390.790569 777.138197,390.551454 L782.386264,389.788865 L784.733271,385.03331 C785.465635,383.549378 786.649476,383.542172 787.385396,385.03331 L789.732403,389.788865 L794.98047,390.551454 C796.618086,390.789414 796.990766,391.913086 795.800022,393.073774 L792.002485,396.775458 L792.898962,402.00232 C793.1787,403.633318 792.225188,404.334992 790.753348,403.561199 L788.711458,402.487715 Z" id="Star-1" fill="#DFE9EE"></path>
            <path d="M837.47263,475.400525 C836.004496,474.628682 833.624816,474.628348 832.156046,475.400525 L828.652496,477.242451 C827.184362,478.014294 826.221383,477.315445 826.501893,475.679946 L827.6787,468.818634 L822.693665,463.959426 C821.505919,462.80166 821.872988,461.669856 823.515122,461.43124 L830.404271,460.430188 L833.485192,454.18756 C834.219259,452.700177 835.409099,452.699534 836.143484,454.18756 L839.224405,460.430188 L846.113554,461.43124 C847.754978,461.669752 848.123271,462.801159 846.935012,463.959426 L841.949977,468.818634 L843.126784,475.679946 C843.407172,477.314737 842.44495,478.014628 840.97618,477.242451 L837.47263,475.400525 Z" id="Star-1" fill="#DFE9EE"></path>
            <path d="M730.157723,358.482549 L723.646467,361.90572 C721.688225,362.935228 720.405098,361.995359 720.777927,359.821603 L722.021466,352.571212 L716.753749,347.436457 C715.169498,345.892194 715.666859,344.381433 717.849434,344.064286 L725.12924,343.006468 L728.384868,336.409845 C729.363989,334.425929 730.954502,334.432097 731.930579,336.409845 L735.186207,343.006468 L742.466013,344.064286 C744.655394,344.382422 745.141024,345.896995 743.561698,347.436457 L738.293981,352.571212 L739.53752,359.821603 C739.911511,362.002138 738.621134,362.932028 736.66898,361.90572 L730.157723,358.482549 Z" id="Star-1" fill="#DFE9EE"></path>
            <path d="M364.768735,544.709303 L358.257478,548.132473 C356.299237,549.161982 355.01611,548.222112 355.388938,546.048357 L356.632478,538.797966 L351.364761,533.663211 C349.78051,532.118948 350.277871,530.608186 352.460445,530.29104 L359.740252,529.233222 L362.99588,522.636599 C363.975001,520.652683 365.565513,520.65885 366.54159,522.636599 L369.797219,529.233222 L377.077025,530.29104 C379.266406,530.609175 379.752035,532.123749 378.17271,533.663211 L372.904992,538.797966 L374.148532,546.048357 C374.522523,548.228891 373.232146,549.158781 371.279992,548.132473 L364.768735,544.709303 Z" id="Star-1" fill="#DFE9EE"></path>
            <text id="RATE-MY-LIFE" fill="url(#linearGradient-11)" font-family="FaktSoftPro-Medium, Fakt Soft Pro" font-size="30" font-weight="400">
                <tspan x="501.499028" y="643.0858">RATE MY LIFE</tspan>
            </text>
            <path d="M425.885213,343.623165 C427.708914,343.623165 429.187315,342.144764 429.187315,340.321063 C429.187315,338.497362 427.708914,337.01896 425.885213,337.01896 C424.061512,337.01896 422.58311,338.497362 422.58311,340.321063 C422.58311,342.144764 424.061512,343.623165 425.885213,343.623165 Z M440.278405,358.016358 C442.102106,358.016358 443.580508,356.537956 443.580508,354.714255 C443.580508,352.890554 442.102106,351.412152 440.278405,351.412152 C438.454704,351.412152 436.976302,352.890554 436.976302,354.714255 C436.976302,356.537956 438.454704,358.016358 440.278405,358.016358 Z M425.885213,372.40955 C427.708914,372.40955 429.187315,370.931148 429.187315,369.107447 C429.187315,367.283746 427.708914,365.805344 425.885213,365.805344 C424.061512,365.805344 422.58311,367.283746 422.58311,369.107447 C422.58311,370.931148 424.061512,372.40955 425.885213,372.40955 Z M411.49202,358.016358 C413.315721,358.016358 414.794123,356.537956 414.794123,354.714255 C414.794123,352.890554 413.315721,351.412152 411.49202,351.412152 C409.668319,351.412152 408.189918,352.890554 408.189918,354.714255 C408.189918,356.537956 409.668319,358.016358 411.49202,358.016358 Z M433.727797,346.87167 C435.017348,348.161222 437.108124,348.161222 438.397676,346.87167 C439.687227,345.582119 439.687227,343.491343 438.397676,342.201792 C437.108124,340.91224 435.017348,340.91224 433.727797,342.201792 C432.438246,343.491343 432.438246,345.582119 433.727797,346.87167 Z M433.727797,367.226718 C435.017348,368.516269 437.108124,368.516269 438.397676,367.226718 C439.687227,365.937167 439.687227,363.846391 438.397676,362.556839 C437.108124,361.267288 435.017348,361.267288 433.727797,362.556839 C432.438246,363.846391 432.438246,365.937167 433.727797,367.226718 Z M413.372749,367.226718 C414.662301,368.516269 416.753077,368.516269 418.042628,367.226718 C419.332179,365.937167 419.332179,363.846391 418.042628,362.556839 C416.753077,361.267288 414.662301,361.267288 413.372749,362.556839 C412.083198,363.846391 412.083198,365.937167 413.372749,367.226718 Z M413.372749,346.87167 C414.662301,348.161222 416.753077,348.161222 418.042628,346.87167 C419.332179,345.582119 419.332179,343.491343 418.042628,342.201792 C416.753077,340.91224 414.662301,340.91224 413.372749,342.201792 C412.083198,343.491343 412.083198,345.582119 413.372749,346.87167 Z" id="Combined-Shape" fill="#DFE8EE"></path>
            <circle id="Oval-10" fill="#DFE8EE" cx="381.265605" cy="390.199206" r="4.0960921"></circle>
            <circle id="Oval-10" fill="#DFE8EE" cx="798.25084" cy="514.087418" r="4.0960921"></circle>
            <circle id="Oval-10" fill="#DFE8EE" cx="824.802726" cy="422.967555" r="2.80601563"></circle>
        </g>
        <g id="Artboard-2"></g>
    </g>
</svg>